<svg xmlns="http://www.w3.org/2000/svg" version="1.1" viewBox="30 30 40 40" stroke="none" stroke-width="0">
 <path d="m50 40.5c0.82812 0 1.5 0.67188 1.5 1.5v6.5h6.5c0.82812 0 1.5 0.67188 1.5 1.5s-0.67188 1.5-1.5 1.5h-6.5v6.5c0 0.82812-0.67188 1.5-1.5 1.5s-1.5-0.67188-1.5-1.5v-6.5h-6.5c-0.82812 0-1.5-0.67188-1.5-1.5s0.67188-1.5 1.5-1.5h6.5v-6.5c0-0.82812 0.67188-1.5 1.5-1.5z"/>
 <path d="m62 30.5c4.1406 0 7.5 3.3594 7.5 7.5v24c0 4.1406-3.3594 7.5-7.5 7.5h-24c-4.1406 0-7.5-3.3594-7.5-7.5v-24c0-4.1406 3.3594-7.5 7.5-7.5zm-24 3c-2.4844 0-4.5 2.0156-4.5 4.5v24c0 2.4844 2.0156 4.5 4.5 4.5h24c2.4844 0 4.5-2.0156 4.5-4.5v-24c0-2.4844-2.0156-4.5-4.5-4.5z" fill-rule="evenodd"/></svg>