<svg xmlns="http://www.w3.org/2000/svg" viewBox="30 30 40 40" fill="none" x="0px" y="0px"><path fill-rule="evenodd" clip-rule="evenodd" d="M50 28C50.5304 28 51.0392 28.2107 51.4142 28.5858L58.4142 35.5858C59.1953 36.3668 59.1953 37.6332 58.4142 38.4142C57.6332 39.1953 56.3668 39.1953 55.5858 38.4142L52 34.8284L52 55C52 56.1046 51.1046 57 50 57C48.8954 57 48 56.1046 48 55L48 34.8284L44.4142 38.4142C43.6332 39.1953 42.3668 39.1953 41.5858 38.4142C40.8047 37.6332 40.8047 36.3668 41.5858 35.5858L48.5858 28.5858C48.9609 28.2107 49.4696 28 50 28ZM38 46C36.8954 46 36 46.8954 36 48L36 66C36 67.1046 36.8954 68 38 68L62 68C63.1046 68 64 67.1046 64 66L64 48C64 46.8954 63.1046 46 62 46L59.1429 46L59.1429 42L62 42C65.3137 42 68 44.6863 68 48L68 66C68 69.3137 65.3137 72 62 72L38 72C34.6863 72 32 69.3137 32 66L32 48C32 44.6863 34.6863 42 38 42H40.8571V46H38Z" fill="black"/></svg>