<svg xmlns="http://www.w3.org/2000/svg" version="1.1" viewBox="-5.0 -10.0 110.0 135.0">
 <g>
  <path fill="#555555" d="m50 92.5h4.5391v-68.219l16.039 16.039 7.2812-7.2812-23.891-23.891c-2.1992-2.1992-5.7617-2.1992-7.9492 0l-23.891 23.891 7.2812 7.2812 16.039-16.039v68.219z"/>
  <path  fill="#555555" d="m54.539 94h-9.0898c-0.82812 0-1.5-0.67188-1.5-1.5v-64.602l-13.469 13.48c-0.55859 0.55859-1.5586 0.55859-2.1211 0l-7.2812-7.2812c-0.58984-0.58984-0.58984-1.5391 0-2.1211l23.891-23.891c1.3398-1.3516 3.1289-2.0898 5.0391-2.0898 1.9102 0 3.6914 0.73828 5.0391 2.0898l23.891 23.891c0.58984 0.58984 0.58984 1.5391 0 2.1211l-7.2812 7.2812c-0.55859 0.55859-1.5586 0.55859-2.1211 0l-13.469-13.48v64.602c0 0.82812-0.67188 1.5-1.5 1.5zm-7.5781-3h6.0898v-66.719c0-0.60938 0.37109-1.1484 0.92969-1.3906 0.55859-0.23047 1.2109-0.10156 1.6289 0.32812l14.969 14.98 5.1602-5.1602-22.828-22.828c-0.78125-0.78125-1.8086-1.2109-2.9219-1.2109-1.1094 0-2.1406 0.42969-2.9219 1.2109l-22.828 22.828 5.1602 5.1602 14.969-14.98c0.42969-0.42969 1.0703-0.55859 1.6289-0.32812s0.92969 0.78125 0.92969 1.3906v66.719z"/>
 </g></svg>